<?xml version="1.0" encoding="UTF-8" standalone="no"?>
<!-- Created with Inkscape (http://www.inkscape.org/) -->

<svg
   width="130mm"
   height="75mm"
   viewBox="0 0 130 75"
   version="1.1"
   id="svg8"
   inkscape:version="1.1.1 (3bf5ae0d25, 2021-09-20, custom)"
   sodipodi:docname="cabdriverprobleminitialexample.svg"
   xmlns:inkscape="http://www.inkscape.org/namespaces/inkscape"
   xmlns:sodipodi="http://sodipodi.sourceforge.net/DTD/sodipodi-0.dtd"
   xmlns:xlink="http://www.w3.org/1999/xlink"
   xmlns="http://www.w3.org/2000/svg"
   xmlns:svg="http://www.w3.org/2000/svg"
   xmlns:rdf="http://www.w3.org/1999/02/22-rdf-syntax-ns#"
   xmlns:cc="http://creativecommons.org/ns#"
   xmlns:dc="http://purl.org/dc/elements/1.1/">
  <defs
     id="defs2">
    <g
       id="g611">
      <symbol
         overflow="visible"
         id="symbol3059">
        <path
           style="stroke:none"
           d=""
           id="path4691" />
      </symbol>
      <symbol
         overflow="visible"
         id="symbol6635">
        <path
           style="stroke:none"
           d="M 1.09375,-3.421875 V -0.75 c 0,0.4375 -0.109375,0.4375 -0.78125,0.4375 V 0 c 0.359375,-0.015625 0.859375,-0.03125 1.140625,-0.03125 0.25,0 0.765625,0.015625 1.109375,0.03125 v -0.3125 c -0.671875,0 -0.78125,0 -0.78125,-0.4375 V -2.59375 C 1.78125,-3.625 2.5,-4.1875 3.125,-4.1875 c 0.640625,0 0.75,0.53125 0.75,1.109375 V -0.75 c 0,0.4375 -0.109375,0.4375 -0.78125,0.4375 V 0 c 0.34375,-0.015625 0.859375,-0.03125 1.125,-0.03125 0.25,0 0.78125,0.015625 1.109375,0.03125 v -0.3125 c -0.515625,0 -0.765625,0 -0.765625,-0.296875 v -1.90625 c 0,-0.859375 0,-1.15625 -0.3125,-1.515625 -0.140625,-0.171875 -0.46875,-0.375 -1.046875,-0.375 C 2.46875,-4.40625 2,-3.984375 1.71875,-3.359375 V -4.40625 L 0.3125,-4.296875 v 0.3125 c 0.703125,0 0.78125,0.0625 0.78125,0.5625 z m 0,0"
           id="path6139" />
      </symbol>
      <symbol
         overflow="visible"
         id="symbol9819">
        <path
           style="stroke:none"
           d=""
           id="path1006" />
      </symbol>
      <symbol
         overflow="visible"
         id="symbol8897">
        <path
           style="stroke:none"
           d="M 4.5,18.21875 C 4.5,17.109375 3.734375,15.4375 2,14.546875 3.078125,13.96875 4.359375,12.8125 4.484375,10.953125 L 4.5,10.890625 v -6.90625 c 0,-0.828125 0,-1 0.078125,-1.375 C 4.75,1.796875 5.234375,0.8125 6.5,0.0625 6.578125,0.015625 6.59375,0.015625 6.59375,-0.171875 c 0,-0.21875 -0.015625,-0.234375 -0.234375,-0.234375 -0.171875,0 -0.203125,0 -0.46875,0.171875 C 3.65625,1.03125 3.53125,2.875 3.53125,3.234375 V 10.3125 c 0,0.71875 0,1.53125 -0.515625,2.453125 -0.46875,0.8125 -1,1.21875 -1.4375,1.515625 -0.125,0.07813 -0.140625,0.09375 -0.140625,0.265625 0,0.171875 0.015625,0.1875 0.09375,0.234375 0.84375,0.5625 1.75,1.453125 1.96875,3.078125 0.03125,0.21875 0.03125,0.234375 0.03125,0.359375 V 25.875 c 0,0.796875 0.5,2.46875 2.421875,3.5 0.234375,0.125 0.25,0.125 0.40625,0.125 0.21875,0 0.234375,-0.01563 0.234375,-0.234375 0,-0.171875 -0.015625,-0.1875 -0.046875,-0.203125 C 6.109375,28.796875 4.8125,28 4.53125,26.265625 4.5,26.015625 4.5,25.984375 4.5,25.859375 Z m 0,0"
           id="path1117" />
      </symbol>
    </g>
    <g
       id="g6189">
      <symbol
         overflow="visible"
         id="symbol7111">
        <path
           style="stroke:none"
           d=""
           id="path6686" />
      </symbol>
      <symbol
         overflow="visible"
         id="symbol5193">
        <path
           style="stroke:none"
           d="M 4.5,18.21875 C 4.5,17.109375 3.734375,15.4375 2,14.546875 3.078125,13.96875 4.359375,12.8125 4.484375,10.953125 L 4.5,10.890625 v -6.90625 c 0,-0.828125 0,-1 0.078125,-1.375 C 4.75,1.796875 5.234375,0.8125 6.5,0.0625 6.578125,0.015625 6.59375,0.015625 6.59375,-0.171875 c 0,-0.21875 -0.015625,-0.234375 -0.234375,-0.234375 -0.171875,0 -0.203125,0 -0.46875,0.171875 C 3.65625,1.03125 3.53125,2.875 3.53125,3.234375 V 10.3125 c 0,0.71875 0,1.53125 -0.515625,2.453125 -0.46875,0.8125 -1,1.21875 -1.4375,1.515625 -0.125,0.07813 -0.140625,0.09375 -0.140625,0.265625 0,0.171875 0.015625,0.1875 0.09375,0.234375 0.84375,0.5625 1.75,1.453125 1.96875,3.078125 0.03125,0.21875 0.03125,0.234375 0.03125,0.359375 V 25.875 c 0,0.796875 0.5,2.46875 2.421875,3.5 0.234375,0.125 0.25,0.125 0.40625,0.125 0.21875,0 0.234375,-0.01563 0.234375,-0.234375 0,-0.171875 -0.015625,-0.1875 -0.046875,-0.203125 C 6.109375,28.796875 4.8125,28 4.53125,26.265625 4.5,26.015625 4.5,25.984375 4.5,25.859375 Z m 0,0"
           id="path6952" />
      </symbol>
    </g>
    <g
       id="g5989">
      <symbol
         overflow="visible"
         id="symbol543">
        <path
           style="stroke:none"
           d=""
           id="path4896" />
      </symbol>
      <symbol
         overflow="visible"
         id="symbol1399">
        <path
           style="stroke:none"
           d="M 4.5,18.21875 C 4.5,17.109375 3.734375,15.4375 2,14.546875 3.078125,13.96875 4.359375,12.8125 4.484375,10.953125 L 4.5,10.890625 v -6.90625 c 0,-0.828125 0,-1 0.078125,-1.375 C 4.75,1.796875 5.234375,0.8125 6.5,0.0625 6.578125,0.015625 6.59375,0.015625 6.59375,-0.171875 c 0,-0.21875 -0.015625,-0.234375 -0.234375,-0.234375 -0.171875,0 -0.203125,0 -0.46875,0.171875 C 3.65625,1.03125 3.53125,2.875 3.53125,3.234375 V 10.3125 c 0,0.71875 0,1.53125 -0.515625,2.453125 -0.46875,0.8125 -1,1.21875 -1.4375,1.515625 -0.125,0.07813 -0.140625,0.09375 -0.140625,0.265625 0,0.171875 0.015625,0.1875 0.09375,0.234375 0.84375,0.5625 1.75,1.453125 1.96875,3.078125 0.03125,0.21875 0.03125,0.234375 0.03125,0.359375 V 25.875 c 0,0.796875 0.5,2.46875 2.421875,3.5 0.234375,0.125 0.25,0.125 0.40625,0.125 0.21875,0 0.234375,-0.01563 0.234375,-0.234375 0,-0.171875 -0.015625,-0.1875 -0.046875,-0.203125 C 6.109375,28.796875 4.8125,28 4.53125,26.265625 4.5,26.015625 4.5,25.984375 4.5,25.859375 Z m 0,0"
           id="path6342" />
      </symbol>
    </g>
    <g
       id="g3758">
      <symbol
         overflow="visible"
         id="symbol8206">
        <path
           style="stroke:none"
           d=""
           id="path7875" />
      </symbol>
      <symbol
         overflow="visible"
         id="symbol3994">
        <path
           style="stroke:none"
           d="M 1.09375,-3.421875 V -0.75 c 0,0.4375 -0.109375,0.4375 -0.78125,0.4375 V 0 c 0.359375,-0.015625 0.859375,-0.03125 1.140625,-0.03125 0.25,0 0.765625,0.015625 1.109375,0.03125 v -0.3125 c -0.671875,0 -0.78125,0 -0.78125,-0.4375 V -2.59375 C 1.78125,-3.625 2.5,-4.1875 3.125,-4.1875 c 0.640625,0 0.75,0.53125 0.75,1.109375 V -0.75 c 0,0.4375 -0.109375,0.4375 -0.78125,0.4375 V 0 c 0.34375,-0.015625 0.859375,-0.03125 1.125,-0.03125 0.25,0 0.78125,0.015625 1.109375,0.03125 v -0.3125 c -0.515625,0 -0.765625,0 -0.765625,-0.296875 v -1.90625 c 0,-0.859375 0,-1.15625 -0.3125,-1.515625 -0.140625,-0.171875 -0.46875,-0.375 -1.046875,-0.375 C 2.46875,-4.40625 2,-3.984375 1.71875,-3.359375 V -4.40625 L 0.3125,-4.296875 v 0.3125 c 0.703125,0 0.78125,0.0625 0.78125,0.5625 z m 0,0"
           id="path9133" />
      </symbol>
    </g>
    <g
       id="g5027">
      <symbol
         overflow="visible"
         id="symbol7959">
        <path
           style="stroke:none"
           d=""
           id="path6724" />
      </symbol>
      <symbol
         overflow="visible"
         id="symbol4166">
        <path
           style="stroke:none"
           d="M 1.09375,-3.421875 V -0.75 c 0,0.4375 -0.109375,0.4375 -0.78125,0.4375 V 0 c 0.359375,-0.015625 0.859375,-0.03125 1.140625,-0.03125 0.25,0 0.765625,0.015625 1.109375,0.03125 v -0.3125 c -0.671875,0 -0.78125,0 -0.78125,-0.4375 V -2.59375 C 1.78125,-3.625 2.5,-4.1875 3.125,-4.1875 c 0.640625,0 0.75,0.53125 0.75,1.109375 V -0.75 c 0,0.4375 -0.109375,0.4375 -0.78125,0.4375 V 0 c 0.34375,-0.015625 0.859375,-0.03125 1.125,-0.03125 0.25,0 0.78125,0.015625 1.109375,0.03125 v -0.3125 c -0.515625,0 -0.765625,0 -0.765625,-0.296875 v -1.90625 c 0,-0.859375 0,-1.15625 -0.3125,-1.515625 -0.140625,-0.171875 -0.46875,-0.375 -1.046875,-0.375 C 2.46875,-4.40625 2,-3.984375 1.71875,-3.359375 V -4.40625 L 0.3125,-4.296875 v 0.3125 c 0.703125,0 0.78125,0.0625 0.78125,0.5625 z m 0,0"
           id="path881" />
      </symbol>
      <symbol
         overflow="visible"
         id="symbol6989">
        <path
           style="stroke:none"
           d="m 1.71875,-3.765625 v -3.15625 L 0.28125,-6.8125 V -6.5 c 0.703125,0 0.78125,0.0625 0.78125,0.5625 V 0 h 0.25 c 0,-0.015625 0.078125,-0.15625 0.359375,-0.625 0.140625,0.234375 0.5625,0.734375 1.296875,0.734375 1.1875,0 2.21875,-0.984375 2.21875,-2.265625 0,-1.265625 -0.96875,-2.25 -2.109375,-2.25 -0.78125,0 -1.203125,0.46875 -1.359375,0.640625 z m 0.03125,2.625 V -3.1875 c 0,-0.1875 0,-0.203125 0.109375,-0.359375 C 2.25,-4.109375 2.796875,-4.1875 3.03125,-4.1875 c 0.453125,0 0.8125,0.265625 1.046875,0.640625 0.265625,0.40625 0.28125,0.96875 0.28125,1.390625 0,0.359375 -0.015625,0.953125 -0.296875,1.40625 -0.21875,0.3125 -0.59375,0.640625 -1.125,0.640625 -0.453125,0 -0.8125,-0.234375 -1.046875,-0.609375 C 1.75,-0.921875 1.75,-0.953125 1.75,-1.140625 Z m 0,0"
           id="path9387" />
      </symbol>
      <symbol
         overflow="visible"
         id="symbol1707">
        <path
           style="stroke:none"
           d="M 1.765625,-6.921875 0.328125,-6.8125 V -6.5 c 0.703125,0 0.78125,0.0625 0.78125,0.5625 V -0.75 c 0,0.4375 -0.109375,0.4375 -0.78125,0.4375 V 0 C 0.65625,-0.015625 1.1875,-0.03125 1.4375,-0.03125 c 0.25,0 0.734375,0.015625 1.109375,0.03125 v -0.3125 c -0.671875,0 -0.78125,0 -0.78125,-0.4375 z m 0,0"
           id="path6049" />
      </symbol>
      <symbol
         overflow="visible"
         id="symbol9841">
        <path
           style="stroke:none"
           d="M 4.6875,-2.140625 C 4.6875,-3.40625 3.703125,-4.46875 2.5,-4.46875 c -1.25,0 -2.21875,1.09375 -2.21875,2.328125 0,1.296875 1.03125,2.25 2.203125,2.25 1.203125,0 2.203125,-0.984375 2.203125,-2.25 z m -2.1875,2 c -0.4375,0 -0.875,-0.203125 -1.140625,-0.671875 -0.25,-0.4375 -0.25,-1.046875 -0.25,-1.40625 0,-0.390625 0,-0.921875 0.234375,-1.359375 C 1.609375,-4.03125 2.078125,-4.25 2.484375,-4.25 c 0.4375,0 0.859375,0.21875 1.125,0.65625 0.265625,0.421875 0.265625,1 0.265625,1.375 0,0.359375 0,0.90625 -0.21875,1.34375 C 3.421875,-0.421875 2.984375,-0.140625 2.5,-0.140625 Z m 0,0"
           id="path3047" />
      </symbol>
      <symbol
         overflow="visible"
         id="symbol9996">
        <path
           style="stroke:none"
           d="m 1.171875,-2.171875 c 0,-1.625 0.8125,-2.046875 1.34375,-2.046875 0.09375,0 0.71875,0.015625 1.0625,0.375 -0.40625,0.03125 -0.46875,0.328125 -0.46875,0.453125 0,0.265625 0.1875,0.453125 0.453125,0.453125 0.265625,0 0.46875,-0.15625 0.46875,-0.46875 0,-0.671875 -0.765625,-1.0625 -1.53125,-1.0625 -1.25,0 -2.15625,1.078125 -2.15625,2.3125 0,1.28125 0.984375,2.265625 2.140625,2.265625 1.328125,0 1.65625,-1.203125 1.65625,-1.296875 0,-0.09375 -0.109375,-0.09375 -0.140625,-0.09375 -0.078125,0 -0.109375,0.03125 -0.125,0.09375 -0.28125,0.921875 -0.9375,1.046875 -1.296875,1.046875 -0.53125,0 -1.40625,-0.421875 -1.40625,-2.03125 z m 0,0"
           id="path7379" />
      </symbol>
      <symbol
         overflow="visible"
         id="symbol1840">
        <path
           style="stroke:none"
           d="m 1.0625,-0.75 c 0,0.4375 -0.109375,0.4375 -0.78125,0.4375 V 0 c 0.328125,-0.015625 0.796875,-0.03125 1.078125,-0.03125 0.3125,0 0.703125,0.015625 1.109375,0.03125 v -0.3125 c -0.671875,0 -0.78125,0 -0.78125,-0.4375 v -1.03125 l 0.640625,-0.546875 c 0.765625,1.046875 1.1875,1.609375 1.1875,1.796875 0,0.1875 -0.171875,0.21875 -0.359375,0.21875 V 0 c 0.265625,-0.015625 0.859375,-0.03125 1.078125,-0.03125 0.28125,0 0.578125,0.015625 0.859375,0.03125 v -0.3125 c -0.375,0 -0.59375,0 -0.96875,-0.53125 L 2.859375,-2.625 c -0.015625,-0.015625 -0.0625,-0.078125 -0.0625,-0.109375 0,-0.03125 0.71875,-0.640625 0.8125,-0.71875 0.625,-0.5 1.046875,-0.53125 1.25,-0.53125 v -0.3125 c -0.28125,0.03125 -0.40625,0.03125 -0.6875,0.03125 -0.359375,0 -0.984375,-0.015625 -1.125,-0.03125 v 0.3125 c 0.1875,0 0.296875,0.109375 0.296875,0.25 0,0.203125 -0.140625,0.3125 -0.21875,0.390625 l -1.40625,1.203125 v -4.78125 L 0.28125,-6.8125 V -6.5 c 0.703125,0 0.78125,0.0625 0.78125,0.5625 z m 0,0"
           id="path447" />
      </symbol>
      <symbol
         overflow="visible"
         id="symbol1362">
        <path
           style="stroke:none"
           d="m 2.078125,-1.9375 c 0.21875,0.046875 1.03125,0.203125 1.03125,0.921875 0,0.5 -0.34375,0.90625 -1.125,0.90625 -0.84375,0 -1.203125,-0.5625 -1.390625,-1.421875 C 0.5625,-1.65625 0.5625,-1.6875 0.453125,-1.6875 c -0.125,0 -0.125,0.0625 -0.125,0.234375 V -0.125 c 0,0.171875 0,0.234375 0.109375,0.234375 0.046875,0 0.0625,-0.015625 0.25,-0.203125 0.015625,-0.015625 0.015625,-0.03125 0.203125,-0.21875 0.4375,0.40625 0.890625,0.421875 1.09375,0.421875 1.140625,0 1.609375,-0.671875 1.609375,-1.390625 0,-0.515625 -0.296875,-0.828125 -0.421875,-0.9375 C 2.84375,-2.546875 2.453125,-2.625 2.03125,-2.703125 1.46875,-2.8125 0.8125,-2.9375 0.8125,-3.515625 c 0,-0.359375 0.25,-0.765625 1.109375,-0.765625 1.09375,0 1.15625,0.90625 1.171875,1.203125 0,0.09375 0.09375,0.09375 0.109375,0.09375 0.140625,0 0.140625,-0.046875 0.140625,-0.234375 v -1.015625 c 0,-0.15625 0,-0.234375 -0.109375,-0.234375 -0.046875,0 -0.078125,0 -0.203125,0.125 -0.03125,0.03125 -0.125,0.125 -0.171875,0.15625 -0.375,-0.28125 -0.78125,-0.28125 -0.9375,-0.28125 -1.21875,0 -1.59375,0.671875 -1.59375,1.234375 0,0.34375 0.15625,0.625 0.421875,0.84375 0.328125,0.25 0.609375,0.3125 1.328125,0.453125 z m 0,0"
           id="path9045" />
      </symbol>
    </g>
    <g
       id="g1826">
      <symbol
         overflow="visible"
         id="symbol7028">
        <path
           style="stroke:none"
           d=""
           id="path8435" />
      </symbol>
      <symbol
         overflow="visible"
         id="symbol7656">
        <path
           style="stroke:none"
           d="M 1.09375,-3.421875 V -0.75 c 0,0.4375 -0.109375,0.4375 -0.78125,0.4375 V 0 c 0.359375,-0.015625 0.859375,-0.03125 1.140625,-0.03125 0.25,0 0.765625,0.015625 1.109375,0.03125 v -0.3125 c -0.671875,0 -0.78125,0 -0.78125,-0.4375 V -2.59375 C 1.78125,-3.625 2.5,-4.1875 3.125,-4.1875 c 0.640625,0 0.75,0.53125 0.75,1.109375 V -0.75 c 0,0.4375 -0.109375,0.4375 -0.78125,0.4375 V 0 c 0.34375,-0.015625 0.859375,-0.03125 1.125,-0.03125 0.25,0 0.78125,0.015625 1.109375,0.03125 v -0.3125 c -0.515625,0 -0.765625,0 -0.765625,-0.296875 v -1.90625 c 0,-0.859375 0,-1.15625 -0.3125,-1.515625 -0.140625,-0.171875 -0.46875,-0.375 -1.046875,-0.375 C 2.46875,-4.40625 2,-3.984375 1.71875,-3.359375 V -4.40625 L 0.3125,-4.296875 v 0.3125 c 0.703125,0 0.78125,0.0625 0.78125,0.5625 z m 0,0"
           id="path8016" />
      </symbol>
    </g>
    <g
       id="g4568">
      <symbol
         overflow="visible"
         id="symbol3319">
        <path
           style="stroke:none"
           d=""
           id="path2205" />
      </symbol>
      <symbol
         overflow="visible"
         id="symbol8517">
        <path
           style="stroke:none"
           d="M 1.09375,-3.421875 V -0.75 c 0,0.4375 -0.109375,0.4375 -0.78125,0.4375 V 0 c 0.359375,-0.015625 0.859375,-0.03125 1.140625,-0.03125 0.25,0 0.765625,0.015625 1.109375,0.03125 v -0.3125 c -0.671875,0 -0.78125,0 -0.78125,-0.4375 V -2.59375 C 1.78125,-3.625 2.5,-4.1875 3.125,-4.1875 c 0.640625,0 0.75,0.53125 0.75,1.109375 V -0.75 c 0,0.4375 -0.109375,0.4375 -0.78125,0.4375 V 0 c 0.34375,-0.015625 0.859375,-0.03125 1.125,-0.03125 0.25,0 0.78125,0.015625 1.109375,0.03125 v -0.3125 c -0.65625,0 -0.765625,0 -0.765625,-0.4375 v -1.84375 c 0,-1.03125 0.703125,-1.59375 1.34375,-1.59375 0.625,0 0.734375,0.53125 0.734375,1.109375 V -0.75 c 0,0.4375 -0.109375,0.4375 -0.78125,0.4375 V 0 c 0.34375,-0.015625 0.859375,-0.03125 1.125,-0.03125 0.265625,0 0.78125,0.015625 1.125,0.03125 v -0.3125 c -0.515625,0 -0.765625,0 -0.78125,-0.296875 v -1.90625 c 0,-0.859375 0,-1.15625 -0.3125,-1.515625 -0.140625,-0.171875 -0.46875,-0.375 -1.046875,-0.375 -0.828125,0 -1.28125,0.59375 -1.4375,0.984375 C 4.390625,-4.296875 3.65625,-4.40625 3.203125,-4.40625 2.46875,-4.40625 2,-3.984375 1.71875,-3.359375 V -4.40625 L 0.3125,-4.296875 v 0.3125 c 0.703125,0 0.78125,0.0625 0.78125,0.5625 z m 0,0"
           id="path9343" />
      </symbol>
    </g>
    <g
       id="g317">
      <symbol
         overflow="visible"
         id="symbol2810">
        <path
           style="stroke:none"
           d=""
           id="path8861" />
      </symbol>
      <symbol
         overflow="visible"
         id="symbol3758">
        <path
           style="stroke:none"
           d="m 3.96875,-6.9375 c -0.046875,-0.125 -0.078125,-0.203125 -0.234375,-0.203125 -0.15625,0 -0.1875,0.0625 -0.234375,0.203125 L 1.4375,-0.984375 C 1.25,-0.46875 0.859375,-0.3125 0.3125,-0.3125 V 0 c 0.234375,-0.015625 0.671875,-0.03125 1.015625,-0.03125 0.3125,0 0.828125,0.015625 1.15625,0.03125 v -0.3125 c -0.5,0 -0.75,-0.25 -0.75,-0.5 0,-0.03125 0.015625,-0.140625 0.015625,-0.15625 L 2.21875,-2.265625 H 4.671875 L 5.203125,-0.75 c 0.015625,0.046875 0.03125,0.109375 0.03125,0.140625 0,0.296875 -0.5625,0.296875 -0.828125,0.296875 V 0 c 0.359375,-0.03125 1.0625,-0.03125 1.4375,-0.03125 0.421875,0 0.890625,0.015625 1.296875,0.03125 V -0.3125 H 6.96875 C 6.375,-0.3125 6.234375,-0.375 6.125,-0.703125 Z m -0.53125,1.109375 1.125,3.25 H 2.328125 Z m 0,0"
           id="path2929" />
      </symbol>
    </g>
    <g
       id="g6745">
      <symbol
         overflow="visible"
         id="symbol4872">
        <path
           style="stroke:none"
           d=""
           id="path8617" />
      </symbol>
      <symbol
         overflow="visible"
         id="symbol8136">
        <path
           style="stroke:none"
           d="m 2.21875,-3.65625 v -2.4375 C 2.21875,-6.4375 2.234375,-6.5 2.703125,-6.5 H 3.9375 c 0.96875,0 1.3125,0.84375 1.3125,1.375 0,0.640625 -0.484375,1.46875 -1.59375,1.46875 z M 4.5625,-3.5625 C 5.53125,-3.75 6.21875,-4.390625 6.21875,-5.125 6.21875,-5.984375 5.296875,-6.8125 4,-6.8125 H 0.359375 V -6.5 H 0.59375 c 0.765625,0 0.796875,0.109375 0.796875,0.46875 v 5.25 c 0,0.359375 -0.03125,0.46875 -0.796875,0.46875 H 0.359375 V 0 h 3.90625 c 1.328125,0 2.21875,-0.890625 2.21875,-1.828125 0,-0.859375 -0.8125,-1.609375 -1.921875,-1.734375 z m -0.609375,3.25 h -1.25 c -0.46875,0 -0.484375,-0.0625 -0.484375,-0.390625 v -2.71875 h 1.875 C 5.078125,-3.421875 5.5,-2.5 5.5,-1.828125 5.5,-1.125 4.96875,-0.3125 3.953125,-0.3125 Z m 0,0"
           id="path638" />
      </symbol>
    </g>
  </defs>
  <sodipodi:namedview
     id="base"
     pagecolor="#ffffff"
     bordercolor="#666666"
     borderopacity="1.0"
     inkscape:pageopacity="0.0"
     inkscape:pageshadow="2"
     inkscape:zoom="2.245066"
     inkscape:cx="277.05199"
     inkscape:cy="127.16776"
     inkscape:document-units="mm"
     inkscape:current-layer="g1232"
     showgrid="false"
     showborder="true"
     width="200mm"
     showguides="true"
     inkscape:guide-bbox="true"
     inkscape:window-width="2162"
     inkscape:window-height="1375"
     inkscape:window-x="0"
     inkscape:window-y="32"
     inkscape:window-maximized="0"
     inkscape:pagecheckerboard="0">
    <inkscape:grid
       type="xygrid"
       id="grid815"
       units="mm"
       spacingx="10"
       spacingy="10"
       empspacing="4"
       dotted="false" />
  </sodipodi:namedview>
  <metadata
     id="metadata5">
    <rdf:RDF>
      <cc:Work
         rdf:about="">
        <dc:format>image/svg+xml</dc:format>
        <dc:type
           rdf:resource="http://purl.org/dc/dcmitype/StillImage" />
      </cc:Work>
    </rdf:RDF>
  </metadata>
  <g
     inkscape:label="Layer 1"
     inkscape:groupmode="layer"
     id="layer1"
     transform="translate(0,-177)">
    <path
       d="m 29.226771,185.2145 v 52.43657 m 4.209857,-52.43657 v 52.43657 m 4.209856,-52.43657 v 52.43657 M 41.85634,185.2145 v 52.43657 m 4.209856,-52.43657 v 52.43657 m 4.209856,-52.43657 v 52.43657 m 4.209856,-52.43657 v 52.43657 m 4.209857,-52.43657 v 52.43657 M 62.90562,185.2145 v 52.43657 m 4.209857,-52.43657 v 52.43657 m 4.209857,-52.43657 v 52.43657 m 4.209854,-52.43657 v 52.43657 m 4.209857,-52.43657 v 52.43657 m 4.209858,-52.43657 v 52.43657 m 4.209854,-52.43657 v 52.43657 m 4.209857,-52.43657 v 52.43657 m 4.209857,-52.43657 v 52.43657 m 4.209859,-52.43657 v 52.43657 m 4.20985,-52.43657 v 52.43657 M 29.226771,185.2145 h 76.374079 m -76.374079,5.78077 h 76.374079 m -76.374079,5.78077 h 76.374079 m -76.374079,5.78076 h 76.374079 m -76.374079,5.78077 h 76.374079 m -76.374079,5.78077 h 76.374079 m -76.374079,5.78076 h 76.374079 m -76.374079,5.78077 h 76.374079 m -76.374079,5.78077 h 76.374079 m -76.374079,5.78076 h 76.374079"
       style="fill:none;stroke:#000000;stroke-width:0.3175px"
       id="path823" />
    <text
       xml:space="preserve"
       style="font-style:normal;font-weight:normal;font-size:10.5833px;line-height:1.25;font-family:sans-serif;fill:#000000;fill-opacity:1;stroke:none;stroke-width:0.264583"
       x="125.11546"
       y="243.40219"
       id="text12229"><tspan
         sodipodi:role="line"
         id="tspan12227"
         style="stroke-width:0.264583"
         x="125.11546"
         y="243.40219">  </tspan></text>
    <g
       inkscape:label=""
       transform="matrix(1,0,0,1.54155,-71.1414,78.0212)"
       id="g12847"
       style="stroke-width:0.805418">
      <g
         id="g2851"
         style="stroke-width:0.805418">
        <g
           style="fill:#000000;fill-opacity:1;stroke-width:0.805418"
           id="g1232">
          <use
             xlink:href="#symbol5193"
             x="91.925003"
             y="72.399002"
             id="use3833"
             width="100%"
             height="100%"
             style="stroke-width:0.805418" />
          <g
             inkscape:label=""
             transform="matrix(0,-0.64869774,2.3889276,0,-69.701439,168.26466)"
             id="g13072"
             style="stroke-width:0.132633;stroke-miterlimit:4;stroke-dasharray:none">
            <g
               id="g7170"
               style="stroke-width:0.132633;stroke-miterlimit:4;stroke-dasharray:none">
              <g
                 style="fill:#000000;fill-opacity:1;stroke-width:0.132633;stroke-miterlimit:4;stroke-dasharray:none"
                 id="g1111">
                <use
                   xlink:href="#symbol1399"
                   x="91.925003"
                   y="72.399002"
                   id="use7169"
                   width="100%"
                   height="100%"
                   style="stroke-width:0.132633;stroke-miterlimit:4;stroke-dasharray:none" />
              </g>
            </g>
          </g>
          <g
             inkscape:label=""
             transform="matrix(0.72389097,0,0,0.49718928,22.65377,47.292624)"
             id="g13758"
             style="stroke-width:1.0813">
            <g
               id="g2889"
               style="stroke-width:1.0813">
              <g
                 style="fill:#000000;fill-opacity:1;stroke-width:1.0813"
                 id="g5462">
                <use
                   xlink:href="#symbol7656"
                   x="91.925003"
                   y="81.962997"
                   id="use1542"
                   width="100%"
                   height="100%"
                   style="stroke-width:1.0813" />
              </g>
            </g>
          </g>
          <g
             inkscape:label=""
             transform="matrix(0.66175731,0,0,0.40883354,74.302594,76.527054)"
             id="g13930"
             style="stroke-width:1.24715">
            <g
               id="g8661"
               style="stroke-width:1.24715">
              <g
                 style="fill:#000000;fill-opacity:1;stroke-width:1.24715"
                 id="g9945">
                <use
                   xlink:href="#symbol8517"
                   x="91.925003"
                   y="81.962997"
                   id="use2857"
                   width="100%"
                   height="100%"
                   style="stroke-width:1.24715" />
              </g>
            </g>
          </g>
          <ellipse
             style="fill:#ff8080;stroke:#000000;stroke-width:0.112759"
             id="path13987"
             cx="100.36279"
             cy="103.13693"
             rx="0.96081638"
             ry="0.6562258" />
          <ellipse
             style="fill:#ff8080;fill-opacity:1;stroke:#000000;stroke-width:0.112759"
             id="path13987-3"
             cx="176.0424"
             cy="69.619888"
             rx="0.96081638"
             ry="0.6562258" />
          <g
             inkscape:label=""
             transform="matrix(0.53643761,0,0,0.37543801,46.270181,75.280356)"
             id="g14347"
             style="stroke-width:1.44549">
            <g
               id="g3966"
               style="stroke-width:1.44549">
              <g
                 style="fill:#000000;fill-opacity:1;stroke-width:1.44549"
                 id="g3727">
                <use
                   xlink:href="#symbol3758"
                   x="91.925003"
                   y="81.962997"
                   id="use1538"
                   width="100%"
                   height="100%"
                   style="stroke-width:1.44549" />
              </g>
            </g>
          </g>
          <g
             inkscape:label=""
             transform="matrix(0.51433371,0,0,0.3760987,130.48356,40.034915)"
             id="g14559"
             style="stroke-width:1.47492">
            <g
               id="g9995"
               style="stroke-width:1.47492">
              <g
                 style="fill:#000000;fill-opacity:1;stroke-width:1.47492"
                 id="g3509">
                <use
                   xlink:href="#symbol8136"
                   x="91.925003"
                   y="81.962997"
                   id="use9212"
                   width="100%"
                   height="100%"
                   style="stroke-width:1.47492" />
              </g>
            </g>
          </g>
          <path
             style="fill:none;stroke:#f40808;stroke-width:0.2131px;stroke-linecap:butt;stroke-linejoin:miter;stroke-opacity:1;fill-opacity:1"
             d="M 100.36817,103.28578 V 92.035873 l 37.96199,-0.03326 -0.31564,-11.314676 33.99168,0.08194 -0.0971,-7.564156 4.10283,0.07155 0.1337,-3.741212"
             id="path946" />
        </g>
      </g>
    </g>
  </g>
</svg>
