<?xml version="1.0" encoding="UTF-8" standalone="no"?>
<!-- Created with Inkscape (http://www.inkscape.org/) -->

<svg
   width="69.266212mm"
   height="13.370649mm"
   viewBox="0 0 69.266212 13.370649"
   version="1.1"
   id="svg8"
   inkscape:version="1.1.1 (3bf5ae0d25, 2021-09-20, custom)"
   sodipodi:docname="multisetboxesexamples3.svg"
   xmlns:inkscape="http://www.inkscape.org/namespaces/inkscape"
   xmlns:sodipodi="http://sodipodi.sourceforge.net/DTD/sodipodi-0.dtd"
   xmlns:xlink="http://www.w3.org/1999/xlink"
   xmlns="http://www.w3.org/2000/svg"
   xmlns:svg="http://www.w3.org/2000/svg"
   xmlns:rdf="http://www.w3.org/1999/02/22-rdf-syntax-ns#"
   xmlns:cc="http://creativecommons.org/ns#"
   xmlns:dc="http://purl.org/dc/elements/1.1/">
  <defs
     id="defs2">
    <g
       id="g2302">
      <symbol
         overflow="visible"
         id="symbol3949">
        <path
           style="stroke:none"
           d=""
           id="path5010" />
      </symbol>
      <symbol
         overflow="visible"
         id="symbol2044">
        <path
           style="stroke:none"
           d="m 4,-3.84375 1.375,-2.015625 c 0.21875,-0.3125 0.5625,-0.625 1.4375,-0.640625 v -0.3125 c -0.375,0.015625 -0.84375,0.03125 -1.09375,0.03125 -0.40625,0 -0.890625,0 -1.28125,-0.03125 V -6.5 c 0.390625,0.015625 0.609375,0.234375 0.609375,0.453125 0,0.109375 -0.015625,0.125 -0.078125,0.234375 L 3.828125,-4.125 2.546875,-6.046875 C 2.515625,-6.078125 2.46875,-6.15625 2.46875,-6.203125 2.46875,-6.3125 2.6875,-6.484375 3.125,-6.5 v -0.3125 c -0.359375,0.03125 -1.078125,0.03125 -1.453125,0.03125 -0.3125,0 -0.9375,0 -1.296875,-0.03125 V -6.5 h 0.1875 c 0.546875,0 0.734375,0.0625 0.921875,0.34375 L 3.3125,-3.375 1.6875,-0.96875 C 1.546875,-0.765625 1.25,-0.3125 0.234375,-0.3125 V 0 c 0.359375,-0.015625 0.78125,-0.03125 1.109375,-0.03125 0.375,0 0.921875,0 1.28125,0.03125 V -0.3125 C 2.15625,-0.3125 2,-0.59375 2,-0.765625 2,-0.859375 2.03125,-0.890625 2.09375,-1 l 1.421875,-2.09375 1.5625,2.375 c 0.03125,0.046875 0.0625,0.078125 0.0625,0.109375 0,0.125 -0.21875,0.296875 -0.65625,0.296875 V 0 C 4.828125,-0.03125 5.5625,-0.03125 5.9375,-0.03125 c 0.421875,0 0.875,0.015625 1.296875,0.03125 v -0.3125 h -0.1875 c -0.515625,0 -0.734375,-0.046875 -0.9375,-0.359375 z m 0,0"
           id="path7167" />
      </symbol>
    </g>
    <g
       id="g5580">
      <symbol
         overflow="visible"
         id="symbol9365">
        <path
           style="stroke:none"
           d=""
           id="path4543" />
      </symbol>
      <symbol
         overflow="visible"
         id="symbol4799">
        <path
           style="stroke:none"
           d="m 2.9375,-6.375 c 0,-0.25 0,-0.265625 -0.234375,-0.265625 C 2.078125,-6 1.203125,-6 0.890625,-6 v 0.3125 c 0.203125,0 0.78125,0 1.296875,-0.265625 v 5.171875 c 0,0.359375 -0.03125,0.46875 -0.921875,0.46875 h -0.3125 V 0 c 0.34375,-0.03125 1.203125,-0.03125 1.609375,-0.03125 0.390625,0 1.265625,0 1.609375,0.03125 v -0.3125 h -0.3125 c -0.90625,0 -0.921875,-0.109375 -0.921875,-0.46875 z m 0,0"
           id="path7645" />
      </symbol>
    </g>
    <g
       id="g1642">
      <symbol
         overflow="visible"
         id="symbol7798">
        <path
           style="stroke:none"
           d=""
           id="path1222" />
      </symbol>
      <symbol
         overflow="visible"
         id="symbol2499">
        <path
           style="stroke:none"
           d="m 1.265625,-0.765625 1.0625,-1.03125 c 1.546875,-1.375 2.140625,-1.90625 2.140625,-2.90625 0,-1.140625 -0.890625,-1.9375 -2.109375,-1.9375 -1.125,0 -1.859375,0.921875 -1.859375,1.8125 0,0.546875 0.5,0.546875 0.53125,0.546875 0.171875,0 0.515625,-0.109375 0.515625,-0.53125 0,-0.25 -0.1875,-0.515625 -0.53125,-0.515625 -0.078125,0 -0.09375,0 -0.125,0.015625 0.21875,-0.65625 0.765625,-1.015625 1.34375,-1.015625 0.90625,0 1.328125,0.8125 1.328125,1.625 C 3.5625,-3.90625 3.078125,-3.125 2.515625,-2.5 l -1.90625,2.125 C 0.5,-0.265625 0.5,-0.234375 0.5,0 H 4.203125 L 4.46875,-1.734375 H 4.234375 C 4.171875,-1.4375 4.109375,-1 4,-0.84375 3.9375,-0.765625 3.28125,-0.765625 3.0625,-0.765625 Z m 0,0"
           id="path7109" />
      </symbol>
    </g>
    <g
       id="g6285">
      <symbol
         overflow="visible"
         id="symbol1978">
        <path
           style="stroke:none"
           d=""
           id="path7423" />
      </symbol>
      <symbol
         overflow="visible"
         id="symbol4861">
        <path
           style="stroke:none"
           d="m 2.890625,-3.515625 c 0.8125,-0.265625 1.390625,-0.953125 1.390625,-1.75 0,-0.8125 -0.875,-1.375 -1.828125,-1.375 -1,0 -1.765625,0.59375 -1.765625,1.359375 0,0.328125 0.21875,0.515625 0.515625,0.515625 0.296875,0 0.5,-0.21875 0.5,-0.515625 0,-0.484375 -0.46875,-0.484375 -0.609375,-0.484375 0.296875,-0.5 0.953125,-0.625 1.3125,-0.625 0.421875,0 0.96875,0.21875 0.96875,1.109375 0,0.125 -0.03125,0.703125 -0.28125,1.140625 C 2.796875,-3.65625 2.453125,-3.625 2.203125,-3.625 2.125,-3.609375 1.890625,-3.59375 1.8125,-3.59375 c -0.078125,0.015625 -0.140625,0.03125 -0.140625,0.125 0,0.109375 0.0625,0.109375 0.234375,0.109375 h 0.4375 c 0.8125,0 1.1875,0.671875 1.1875,1.65625 0,1.359375 -0.6875,1.640625 -1.125,1.640625 -0.4375,0 -1.1875,-0.171875 -1.53125,-0.75 0.34375,0.046875 0.65625,-0.171875 0.65625,-0.546875 0,-0.359375 -0.265625,-0.5625 -0.546875,-0.5625 -0.25,0 -0.5625,0.140625 -0.5625,0.578125 0,0.90625 0.921875,1.5625 2.015625,1.5625 1.21875,0 2.125,-0.90625 2.125,-1.921875 0,-0.8125 -0.640625,-1.59375 -1.671875,-1.8125 z m 0,0"
           id="path4160" />
      </symbol>
    </g>
    <g
       id="g926">
      <symbol
         overflow="visible"
         id="symbol9939">
        <path
           style="stroke:none"
           d=""
           id="path9887" />
      </symbol>
      <symbol
         overflow="visible"
         id="symbol5004">
        <path
           style="stroke:none"
           d="m 2.9375,-1.640625 v 0.859375 c 0,0.359375 -0.03125,0.46875 -0.765625,0.46875 H 1.96875 V 0 C 2.375,-0.03125 2.890625,-0.03125 3.3125,-0.03125 c 0.421875,0 0.9375,0 1.359375,0.03125 v -0.3125 h -0.21875 c -0.734375,0 -0.75,-0.109375 -0.75,-0.46875 V -1.640625 H 4.6875 v -0.3125 H 3.703125 v -4.53125 c 0,-0.203125 0,-0.265625 -0.171875,-0.265625 -0.078125,0 -0.109375,0 -0.1875,0.125 l -3.0625,4.671875 v 0.3125 z m 0.046875,-0.3125 H 0.5625 l 2.421875,-3.71875 z m 0,0"
           id="path4528" />
      </symbol>
    </g>
  </defs>
  <sodipodi:namedview
     id="base"
     pagecolor="#ffffff"
     bordercolor="#666666"
     borderopacity="1.0"
     inkscape:pageopacity="0.0"
     inkscape:pageshadow="2"
     inkscape:zoom="1.022533"
     inkscape:cx="445.95137"
     inkscape:cy="279.20859"
     inkscape:document-units="mm"
     inkscape:current-layer="layer1"
     showgrid="false"
     showborder="true"
     width="107mm"
     showguides="true"
     inkscape:guide-bbox="true"
     inkscape:window-width="2162"
     inkscape:window-height="1375"
     inkscape:window-x="0"
     inkscape:window-y="32"
     inkscape:window-maximized="0"
     inkscape:pagecheckerboard="0"
     fit-margin-top="0"
     fit-margin-left="0"
     fit-margin-right="0"
     fit-margin-bottom="0">
    <inkscape:grid
       type="xygrid"
       id="grid815"
       units="mm"
       spacingx="10"
       spacingy="10"
       empspacing="4"
       dotted="false"
       originx="-7.6987893"
       originy="-10.264277" />
  </sodipodi:namedview>
  <metadata
     id="metadata5">
    <rdf:RDF>
      <cc:Work
         rdf:about="">
        <dc:format>image/svg+xml</dc:format>
        <dc:type
           rdf:resource="http://purl.org/dc/dcmitype/StillImage" />
      </cc:Work>
    </rdf:RDF>
  </metadata>
  <g
     inkscape:label="Layer 1"
     inkscape:groupmode="layer"
     id="layer1"
     transform="translate(-7.6987891,-187.26428)">
    <g
       inkscape:label=""
       transform="translate(-84.460589,112.9034)"
       id="g841"
       inkscape:transform-center-x="-137.84062"
       inkscape:transform-center-y="73.852185">
      <g
         id="g2033">
        <g
           style="fill:#000000;fill-opacity:1"
           id="g3765">
          <use
             xlink:href="#symbol2044"
             x="91.925003"
             y="81.962997"
             id="use5634"
             width="100%"
             height="100%" />
        </g>
      </g>
    </g>
    <ellipse
       style="fill:#000000;stroke:#000000;stroke-width:0.14;stroke-opacity:1"
       id="path920"
       cx="27.085062"
       cy="191.46014"
       rx="1.3601832"
       ry="1.4317144" />
    <ellipse
       style="fill:#000000;stroke:#000000;stroke-width:0.14;stroke-opacity:1"
       id="path920-3"
       cx="42.971336"
       cy="191.46014"
       rx="1.3601832"
       ry="1.4317144" />
    <ellipse
       style="fill:#000000;stroke:#000000;stroke-width:0.14;stroke-opacity:1"
       id="path920-3-6"
       cx="74.743881"
       cy="191.46014"
       rx="1.3601832"
       ry="1.4317144" />
    <ellipse
       style="fill:#000000;stroke:#000000;stroke-width:0.14;stroke-opacity:1"
       id="path920-3-6-7"
       cx="58.857605"
       cy="191.46014"
       rx="1.3601832"
       ry="1.4317144" />
    <g
       inkscape:label=""
       transform="matrix(0.40989217,0,0,0.62958393,-11.728263,149.03234)"
       id="g1423"
       style="stroke-width:1.96851">
      <g
         id="g1397"
         style="stroke-width:1.96851">
        <g
           style="fill:#000000;fill-opacity:1;stroke-width:1.96851"
           id="g8427">
          <use
             xlink:href="#symbol4799"
             x="91.925003"
             y="81.962997"
             id="use545"
             width="100%"
             height="100%"
             style="stroke-width:1.96851" />
        </g>
      </g>
    </g>
    <g
       inkscape:label=""
       transform="matrix(0.46126333,0,0,0.60924608,-0.61584467,150.63176)"
       id="g1517"
       style="stroke-width:1.88638">
      <g
         id="g8640"
         style="stroke-width:1.88638">
        <g
           style="fill:#000000;fill-opacity:1;stroke-width:1.88638"
           id="g6456">
          <use
             xlink:href="#symbol2499"
             x="91.925003"
             y="81.962997"
             id="use2391"
             width="100%"
             height="100%"
             style="stroke-width:1.88638" />
        </g>
      </g>
    </g>
    <g
       inkscape:label=""
       transform="matrix(0.48389705,0,0,0.59594874,13.623144,151.61232)"
       id="g1629"
       style="stroke-width:1.86218">
      <g
         id="g5119"
         style="stroke-width:1.86218">
        <g
           style="fill:#000000;fill-opacity:1;stroke-width:1.86218"
           id="g5351">
          <use
             xlink:href="#symbol4861"
             x="91.925003"
             y="81.962997"
             id="use9071"
             width="100%"
             height="100%"
             style="stroke-width:1.86218" />
        </g>
      </g>
    </g>
    <g
       inkscape:label=""
       transform="matrix(0.45951872,0,0,0.61050468,31.249778,150.56617)"
       id="g1759"
       style="stroke-width:1.88801">
      <g
         id="g7015"
         style="stroke-width:1.88801">
        <g
           style="fill:#000000;fill-opacity:1;stroke-width:1.88801"
           id="g3742">
          <use
             xlink:href="#symbol5004"
             x="91.925003"
             y="81.962997"
             id="use6067"
             width="100%"
             height="100%"
             style="stroke-width:1.88801" />
        </g>
      </g>
    </g>
    <ellipse
       style="fill:none;stroke:#f57d7d;stroke-width:0.14;stroke-opacity:1"
       id="path1813"
       cx="26.988487"
       cy="191.45851"
       rx="2.2617159"
       ry="2.3512847" />
    <ellipse
       style="fill:none;stroke:#f57d7d;stroke-width:0.14;stroke-opacity:1"
       id="path1813-5"
       cx="74.633286"
       cy="191.41779"
       rx="2.2617159"
       ry="2.3512847" />
    <ellipse
       style="fill:none;stroke:#f57d7d;stroke-width:0.14;stroke-opacity:1"
       id="path1813-5-3"
       cx="58.825287"
       cy="191.48564"
       rx="2.2617159"
       ry="2.3512847" />
    <ellipse
       style="fill:none;stroke:#f57d7d;stroke-width:0.14;stroke-opacity:1"
       id="path1813-5-3-5"
       cx="58.758904"
       cy="191.49455"
       rx="3.5367942"
       ry="3.2397683" />
    <ellipse
       style="fill:none;stroke:#f57d7d;stroke-width:0.139999;stroke-opacity:1"
       id="path1813-5-3-5-6"
       cx="58.785721"
       cy="191.63263"
       rx="4.3307781"
       ry="4.2983527" />
  </g>
</svg>
